<?xml version="1.0" standalone="no"?>
<!DOCTYPE svg PUBLIC "-//W3C//DTD SVG 20010904//EN"
 "http://www.w3.org/TR/2001/REC-SVG-20010904/DTD/svg10.dtd">
<svg version="1.0" xmlns="http://www.w3.org/2000/svg"
 width="300.000000pt" height="85.000000pt" viewBox="0 0 300.000000 85.000000"
 preserveAspectRatio="xMidYMid meet">

<g transform="translate(0.000000,85.000000) scale(0.100000,-0.100000)"
fill="#000000" stroke="none">
<path d="M2741 690 c-25 -4 -47 -13 -49 -20 -3 -8 -16 -23 -29 -34 -13 -12
-45 -41 -70 -66 -45 -44 -45 -44 -18 -7 15 20 23 37 18 37 -26 0 -113 -32
-108 -40 3 -5 -5 -16 -17 -24 l-22 -16 23 0 c23 0 23 -1 8 -18 -10 -10 -17
-22 -17 -25 0 -4 27 -7 60 -7 43 0 60 4 60 13 0 29 40 57 81 57 22 0 56 7 77
16 38 16 102 71 102 88 0 5 10 20 22 33 l21 23 -49 -1 c-27 -1 -69 -5 -93 -9z"/>
<path d="M113 658 c-6 -7 -31 -52 -57 -100 -42 -77 -45 -88 -28 -88 10 0 24
11 30 25 11 23 17 25 75 25 58 0 65 -2 75 -25 10 -21 18 -25 58 -25 46 0 46 0
32 23 -8 12 -36 57 -62 100 -44 71 -51 77 -81 77 -18 0 -37 -6 -42 -12z m38
-65 c7 -16 15 -31 17 -35 2 -5 -15 -8 -37 -8 l-41 0 17 35 c20 42 26 43 44 8z"/>
<path d="M330 570 l0 -100 100 0 c107 0 140 17 43 22 -55 3 -58 4 -61 31 -3
27 -2 27 52 27 43 0 56 3 56 15 0 12 -13 15 -55 15 -54 0 -55 0 -55 30 l0 30
60 0 c47 0 60 3 60 15 0 12 -18 15 -100 15 l-100 0 0 -100z"/>
<path d="M578 664 c-5 -4 -8 -49 -8 -101 l0 -93 40 0 39 0 3 83 3 82 35 3 c46
4 79 -20 64 -45 -6 -10 -25 -23 -42 -28 l-31 -11 32 -41 c28 -36 37 -41 80
-45 26 -1 47 -1 47 3 0 3 -16 20 -35 39 l-35 34 32 16 c41 19 49 57 18 85 -18
16 -40 20 -128 23 -59 2 -110 0 -114 -4z"/>
<path d="M933 651 c-96 -44 -81 -151 26 -181 147 -41 283 43 230 142 -17 31
-86 58 -154 58 -38 0 -76 -8 -102 -19z m147 -11 c26 -14 43 -71 31 -103 -12
-30 -47 -57 -76 -57 -29 0 -64 27 -76 57 -12 31 5 88 29 103 22 12 68 13 92 0z"/>
<path d="M1237 663 c-4 -3 -7 -48 -7 -100 l0 -93 40 0 40 0 0 40 0 40 55 0
c42 0 55 3 55 15 0 12 -13 15 -55 15 -54 0 -55 0 -55 30 l0 30 60 0 c47 0 60
3 60 15 0 12 -17 15 -93 15 -52 0 -97 -3 -100 -7z"/>
<path d="M1470 668 c-1 -2 -2 -47 -3 -101 l-2 -97 98 0 c104 0 135 17 40 22
l-58 3 -3 88 -3 87 -34 0 c-19 0 -35 -1 -35 -2z"/>
<path d="M1743 659 c-39 -11 -83 -62 -83 -96 0 -73 132 -123 242 -92 87 23
120 98 70 152 -40 42 -148 59 -229 36z m142 -34 c52 -51 16 -145 -55 -145 -44
0 -80 39 -80 85 0 46 36 85 80 85 19 0 40 -9 55 -25z"/>
<path d="M2007 663 c-16 -16 -4 -23 38 -23 l45 0 0 -85 0 -85 40 0 40 0 0 85
0 85 45 0 c33 0 45 4 45 15 0 13 -20 15 -123 15 -68 0 -127 -3 -130 -7z"/>
<path d="M2405 535 c-26 -14 -67 -40 -92 -58 -24 -18 -60 -44 -80 -58 -19 -14
-39 -33 -44 -42 -17 -30 168 88 243 154 39 36 34 36 -27 4z"/>
<path d="M278 340 c14 -20 15 -40 2 -60 -9 -13 -11 -13 -20 0 -5 8 -7 23 -4
33 6 19 -3 22 -25 8 -12 -8 -12 -12 2 -26 10 -9 17 -21 17 -26 0 -18 -29 -9
-48 16 -19 23 -25 25 -108 24 l-89 -1 55 -26 c34 -16 72 -26 101 -26 41 0 46
-2 41 -20 -4 -17 -2 -19 9 -8 16 14 59 16 59 2 0 -5 4 -10 9 -10 5 0 7 9 4 21
-5 17 -2 19 19 14 24 -6 144 27 162 46 6 5 -22 9 -72 9 -73 0 -85 3 -105 23
-12 13 -16 16 -9 7z"/>
<path d="M688 280 c-9 -33 -12 -60 -7 -60 5 0 11 11 15 25 3 14 10 25 14 25 4
0 11 -11 14 -25 4 -14 11 -25 16 -25 6 0 8 11 4 24 -4 18 0 27 16 36 14 7 20
19 18 33 -2 17 -11 23 -38 25 l-36 3 -16 -61z m69 34 c6 -16 -12 -34 -34 -34
-14 0 -18 32 -6 43 12 12 34 7 40 -9z"/>
<path d="M1478 283 c-20 -32 -35 -60 -32 -63 3 -2 10 3 15 13 13 22 45 22 58
0 5 -10 13 -15 16 -11 9 9 -4 118 -13 118 -4 0 -24 -26 -44 -57z m42 2 c0 -18
-5 -25 -20 -25 -20 0 -20 1 -4 25 9 14 18 25 20 25 2 0 4 -11 4 -25z"/>
<path d="M1600 330 c0 -5 5 -10 10 -10 6 0 10 5 10 10 0 6 -4 10 -10 10 -5 0
-10 -4 -10 -10z"/>
<path d="M1730 298 c-6 -24 -13 -51 -16 -60 -3 -10 -2 -18 3 -18 5 0 15 27 24
60 9 33 12 60 8 60 -5 0 -13 -19 -19 -42z"/>
<path d="M1805 330 c-3 -5 -1 -10 4 -10 6 0 11 5 11 10 0 6 -2 10 -4 10 -3 0
-8 -4 -11 -10z"/>
<path d="M801 263 c-11 -39 0 -58 27 -48 8 3 17 5 22 5 4 0 12 18 18 40 5 22
6 40 2 40 -4 0 -11 -12 -15 -27 -15 -62 -50 -73 -40 -13 8 50 -1 52 -14 3z"/>
<path d="M913 284 c-4 -10 1 -22 11 -30 23 -17 11 -37 -17 -28 -18 5 -20 4
-10 -7 10 -10 18 -10 38 -1 30 14 33 38 4 47 -23 8 -16 20 16 28 15 3 13 5 -8
6 -17 1 -30 -5 -34 -15z"/>
<path d="M1003 284 c-4 -10 1 -22 11 -30 23 -16 11 -37 -17 -29 -19 5 -20 5
-5 -5 13 -8 23 -8 38 0 26 14 26 37 -1 45 -23 8 -16 20 16 28 15 3 13 5 -8 6
-17 1 -30 -5 -34 -15z"/>
<path d="M1096 287 c3 -8 0 -26 -5 -40 -6 -15 -7 -27 -2 -27 5 0 12 11 15 24
3 13 9 31 12 40 4 10 1 16 -10 16 -9 0 -13 -6 -10 -13z"/>
<path d="M1166 291 c-4 -5 3 -7 15 -4 17 5 19 2 17 -18 -2 -13 -7 -30 -11 -36
-5 -8 -3 -13 6 -13 12 0 27 39 27 71 0 12 -47 12 -54 0z"/>
<path d="M1256 265 c-9 -47 0 -58 12 -14 5 20 16 35 26 37 16 4 18 -1 12 -35
-6 -28 -5 -35 4 -27 6 6 12 24 13 40 2 26 -2 29 -29 32 -29 3 -32 0 -38 -33z"/>
<path d="M1584 291 c3 -4 1 -22 -4 -40 -5 -17 -5 -31 -1 -31 5 0 13 18 19 40
8 33 7 40 -5 40 -8 0 -12 -4 -9 -9z"/>
<path d="M1647 293 c-3 -5 -8 -23 -12 -42 -5 -23 -4 -31 4 -27 6 4 11 15 11
25 0 22 25 45 40 36 5 -3 10 -1 10 4 0 12 -46 15 -53 4z"/>
<path d="M1790 283 c0 -10 -3 -29 -5 -43 -5 -22 -3 -21 9 5 18 36 20 55 6 55
-5 0 -10 -8 -10 -17z"/>
<path d="M1843 258 c-2 -42 4 -38 21 15 3 9 13 17 22 17 13 0 15 -7 9 -37 -4
-26 -3 -35 4 -28 5 6 11 24 13 40 3 28 0 30 -32 33 -35 3 -35 3 -37 -40z"/>
<path d="M1956 278 c-9 -12 -16 -30 -16 -40 0 -21 38 -34 54 -18 8 9 6 11 -8
8 -10 -1 -21 2 -23 9 -2 7 8 13 24 15 20 2 28 9 28 23 0 29 -39 32 -59 3z m42
0 c-6 -18 -28 -21 -28 -4 0 9 7 16 16 16 9 0 14 -5 12 -12z"/>
<path d="M2053 284 c-4 -10 1 -22 11 -30 23 -17 11 -37 -17 -28 -18 5 -20 4
-10 -7 10 -10 18 -10 38 -1 31 14 32 36 3 49 l-23 11 25 10 c25 11 25 11 2 11
-12 1 -25 -6 -29 -15z"/>
<path d="M1144 245 c-6 -16 2 -35 16 -35 5 0 7 7 3 16 -3 9 0 20 8 25 11 7 10
9 -4 9 -10 0 -20 -7 -23 -15z"/>
</g>
</svg>
